<svg width="202" height="212" viewBox="0 0 202 212" fill="none" xmlns="http://www.w3.org/2000/svg">
<g filter="url(#filter0_dd_2006_1665)">
<path fill-rule="evenodd" clip-rule="evenodd" d="M141.351 82.8922C148.147 66.9813 161.297 43.9149 171.579 29.0628C172.364 27.9295 170.205 25.7371 169.069 26.5187C154.271 36.7051 131.857 50.1198 116.014 57.5447C111.83 45.5482 107.729 30.2739 105.414 18.4761C105.149 17.1259 101.918 17.1012 101.657 18.4507C99.3783 30.264 95.618 45.539 91.7695 57.6935C75.8629 51.1909 51.7298 37.5572 36.3909 26.9664C35.2603 26.1858 33.0603 28.3526 33.8378 29.4853C44.5682 45.1168 58.8877 69.2729 65.9125 85.1533C54.1421 89.1436 39.5547 92.992 28.1913 95.1908C26.8418 95.4519 26.8262 98.6834 28.1765 98.9476C39.9084 101.243 55.0547 105.007 67.1753 108.86C60.5513 124.792 46.9753 148.692 36.421 163.937C35.6363 165.071 37.7953 167.263 38.9307 166.481C53.8606 156.204 76.5408 142.642 92.4064 135.259C96.4424 147.058 100.348 161.708 102.585 173.11C102.85 174.46 106.082 174.485 106.342 173.135C108.544 161.725 112.127 147.085 115.837 135.146C131.737 141.583 156.143 155.355 171.609 166.034C172.74 166.814 174.94 164.647 174.162 163.515C163.151 147.474 148.359 122.455 141.55 106.615C153.412 102.56 168.272 98.6273 179.809 96.395C181.158 96.1338 181.174 92.9024 179.823 92.6382C168.261 90.3759 153.381 86.6868 141.351 82.8922Z" fill="url(#paint0_radial_2006_1665)"/>
</g>
<circle cx="104" cy="96" r="64" stroke="url(#paint1_linear_2006_1665)" stroke-opacity="0.7" stroke-width="6" stroke-dasharray="2 12"/>
<g filter="url(#filter1_ii_2006_1665)">
<path d="M28.1912 95.1908C45.8781 91.7684 71.3754 84.3498 81.9046 78.6195C82.2407 78.2788 82.6006 77.9352 82.9853 77.5873C88.5564 72.5492 97.5326 39.8307 101.657 18.4508C101.918 17.1012 105.149 17.1259 105.414 18.4761C109.636 39.9905 119.797 73.0655 125.566 76.7422C125.872 76.9371 126.168 77.1567 126.454 77.3988C138.018 82.733 162.6 89.2684 179.823 92.6382C181.174 92.9024 181.158 96.1339 179.809 96.395C162.122 99.8174 136.624 107.236 126.095 112.966C125.759 113.307 125.399 113.651 125.014 113.999C119.443 119.037 110.467 151.755 106.342 173.135C106.082 174.485 102.85 174.46 102.585 173.11C98.3636 151.596 88.203 118.521 82.4332 114.844C82.1268 114.649 81.8303 114.429 81.5439 114.186C69.9788 108.852 45.3986 102.317 28.1765 98.9476C26.8262 98.6834 26.8418 95.4519 28.1912 95.1908Z" fill="url(#paint2_diamond_2006_1665)"/>
</g>
<g filter="url(#filter2_ii_2006_1665)">
<path d="M180.364 20.2964C166.192 40.7666 147.199 75.0461 142.295 91.6193C142.298 92.2812 142.281 92.9693 142.244 93.686C141.687 104.42 166.411 147.648 183.283 172.226C184.162 173.506 181.676 175.955 180.398 175.073C155.75 158.055 111.008 134.084 101.477 136.218C100.988 136.327 100.485 136.403 99.97 136.447C82.7728 142.831 50.4699 161.813 30.4721 175.579C29.1891 176.462 26.7495 173.984 27.6361 172.704C41.8078 152.233 60.801 117.954 65.7054 101.381C65.7021 100.719 65.7192 100.031 65.7564 99.3141C66.3131 88.5802 41.5889 45.3517 24.7171 20.7737C23.8385 19.4938 26.3246 17.0454 27.6021 17.9274C52.2497 34.9454 96.9919 58.9163 106.523 56.7822C107.012 56.6728 107.515 56.5972 108.03 56.5535C125.227 50.1687 157.53 31.1867 177.528 17.4215C178.811 16.5383 181.251 19.0157 180.364 20.2964Z" fill="url(#paint3_diamond_2006_1665)"/>
</g>
<g filter="url(#filter3_dii_2006_1665)">
<circle cx="104" cy="96" r="27" fill="url(#paint4_radial_2006_1665)"/>
<circle cx="104" cy="96" r="24" stroke="url(#paint5_radial_2006_1665)" stroke-width="6"/>
</g>
<path d="M91.1028 82.1248C95.3786 85.4936 100.561 87.7285 105.047 90.8343C106.779 92.0339 108.149 93.5019 109.577 95.057C111.897 97.5825 115.648 103.16 115.648 107.065" stroke="#D6AF75" stroke-opacity="0.3" stroke-width="2" stroke-linecap="round"/>
<path d="M119.21 86.4796C110.458 88.0578 102.081 90.3267 94.3798 94.7271C92.7713 95.6462 90.9484 96.8729 89.7611 98.3341C88.608 99.7533 87.5398 100.779 87.5398 102.711" stroke="#D6AF75" stroke-opacity="0.3" stroke-width="2" stroke-linecap="round"/>
<defs>
<filter id="filter0_dd_2006_1665" x="0.171387" y="9.45093" width="193.657" height="201.684" filterUnits="userSpaceOnUse" color-interpolation-filters="sRGB">
<feFlood flood-opacity="0" result="BackgroundImageFix"/>
<feColorMatrix in="SourceAlpha" type="matrix" values="0 0 0 0 0 0 0 0 0 0 0 0 0 0 0 0 0 0 127 0" result="hardAlpha"/>
<feOffset dx="-7" dy="17"/>
<feGaussianBlur stdDeviation="10"/>
<feComposite in2="hardAlpha" operator="out"/>
<feColorMatrix type="matrix" values="0 0 0 0 0.32895 0 0 0 0 0.312847 0 0 0 0 0.441667 0 0 0 0.65 0"/>
<feBlend mode="normal" in2="BackgroundImageFix" result="effect1_dropShadow_2006_1665"/>
<feColorMatrix in="SourceAlpha" type="matrix" values="0 0 0 0 0 0 0 0 0 0 0 0 0 0 0 0 0 0 127 0" result="hardAlpha"/>
<feOffset dy="4"/>
<feGaussianBlur stdDeviation="6"/>
<feComposite in2="hardAlpha" operator="out"/>
<feColorMatrix type="matrix" values="0 0 0 0 0 0 0 0 0 0 0 0 0 0 0 0 0 0 0.15 0"/>
<feBlend mode="normal" in2="effect1_dropShadow_2006_1665" result="effect2_dropShadow_2006_1665"/>
<feBlend mode="normal" in="SourceGraphic" in2="effect2_dropShadow_2006_1665" result="shape"/>
</filter>
<filter id="filter1_ii_2006_1665" x="26.1714" y="16.4509" width="156.657" height="159.684" filterUnits="userSpaceOnUse" color-interpolation-filters="sRGB">
<feFlood flood-opacity="0" result="BackgroundImageFix"/>
<feBlend mode="normal" in="SourceGraphic" in2="BackgroundImageFix" result="shape"/>
<feColorMatrix in="SourceAlpha" type="matrix" values="0 0 0 0 0 0 0 0 0 0 0 0 0 0 0 0 0 0 127 0" result="hardAlpha"/>
<feOffset dx="-1" dy="-5"/>
<feGaussianBlur stdDeviation="0.5"/>
<feComposite in2="hardAlpha" operator="arithmetic" k2="-1" k3="1"/>
<feColorMatrix type="matrix" values="0 0 0 0 0.827451 0 0 0 0 0.592157 0 0 0 0 0.341176 0 0 0 1 0"/>
<feBlend mode="normal" in2="shape" result="effect1_innerShadow_2006_1665"/>
<feColorMatrix in="SourceAlpha" type="matrix" values="0 0 0 0 0 0 0 0 0 0 0 0 0 0 0 0 0 0 127 0" result="hardAlpha"/>
<feOffset dx="3" dy="3"/>
<feGaussianBlur stdDeviation="1"/>
<feComposite in2="hardAlpha" operator="arithmetic" k2="-1" k3="1"/>
<feColorMatrix type="matrix" values="0 0 0 0 0.984314 0 0 0 0 0.913725 0 0 0 0 0.760784 0 0 0 0.56 0"/>
<feBlend mode="normal" in2="effect1_innerShadow_2006_1665" result="effect2_innerShadow_2006_1665"/>
</filter>
<filter id="filter2_ii_2006_1665" x="23.5332" y="16.2354" width="161.934" height="161.529" filterUnits="userSpaceOnUse" color-interpolation-filters="sRGB">
<feFlood flood-opacity="0" result="BackgroundImageFix"/>
<feBlend mode="normal" in="SourceGraphic" in2="BackgroundImageFix" result="shape"/>
<feColorMatrix in="SourceAlpha" type="matrix" values="0 0 0 0 0 0 0 0 0 0 0 0 0 0 0 0 0 0 127 0" result="hardAlpha"/>
<feOffset dx="-3" dy="-3"/>
<feGaussianBlur stdDeviation="0.5"/>
<feComposite in2="hardAlpha" operator="arithmetic" k2="-1" k3="1"/>
<feColorMatrix type="matrix" values="0 0 0 0 0.827451 0 0 0 0 0.592157 0 0 0 0 0.341176 0 0 0 1 0"/>
<feBlend mode="normal" in2="shape" result="effect1_innerShadow_2006_1665"/>
<feColorMatrix in="SourceAlpha" type="matrix" values="0 0 0 0 0 0 0 0 0 0 0 0 0 0 0 0 0 0 127 0" result="hardAlpha"/>
<feOffset dx="4" dy="4"/>
<feGaussianBlur stdDeviation="1"/>
<feComposite in2="hardAlpha" operator="arithmetic" k2="-1" k3="1"/>
<feColorMatrix type="matrix" values="0 0 0 0 0.984314 0 0 0 0 0.913725 0 0 0 0 0.760784 0 0 0 0.5 0"/>
<feBlend mode="normal" in2="effect1_innerShadow_2006_1665" result="effect2_innerShadow_2006_1665"/>
</filter>
<filter id="filter3_dii_2006_1665" x="72" y="68" width="64" height="64" filterUnits="userSpaceOnUse" color-interpolation-filters="sRGB">
<feFlood flood-opacity="0" result="BackgroundImageFix"/>
<feColorMatrix in="SourceAlpha" type="matrix" values="0 0 0 0 0 0 0 0 0 0 0 0 0 0 0 0 0 0 127 0" result="hardAlpha"/>
<feMorphology radius="2" operator="erode" in="SourceAlpha" result="effect1_dropShadow_2006_1665"/>
<feOffset dy="4"/>
<feGaussianBlur stdDeviation="3.5"/>
<feComposite in2="hardAlpha" operator="out"/>
<feColorMatrix type="matrix" values="0 0 0 0 0.776471 0 0 0 0 0.509804 0 0 0 0 0.266667 0 0 0 0.7 0"/>
<feBlend mode="normal" in2="BackgroundImageFix" result="effect1_dropShadow_2006_1665"/>
<feBlend mode="normal" in="SourceGraphic" in2="effect1_dropShadow_2006_1665" result="shape"/>
<feColorMatrix in="SourceAlpha" type="matrix" values="0 0 0 0 0 0 0 0 0 0 0 0 0 0 0 0 0 0 127 0" result="hardAlpha"/>
<feMorphology radius="8" operator="erode" in="SourceAlpha" result="effect2_innerShadow_2006_1665"/>
<feOffset dx="-1" dy="1"/>
<feGaussianBlur stdDeviation="2"/>
<feComposite in2="hardAlpha" operator="arithmetic" k2="-1" k3="1"/>
<feColorMatrix type="matrix" values="0 0 0 0 0.983333 0 0 0 0 0.818891 0 0 0 0 0.651458 0 0 0 1 0"/>
<feBlend mode="normal" in2="shape" result="effect2_innerShadow_2006_1665"/>
<feColorMatrix in="SourceAlpha" type="matrix" values="0 0 0 0 0 0 0 0 0 0 0 0 0 0 0 0 0 0 127 0" result="hardAlpha"/>
<feMorphology radius="4" operator="erode" in="SourceAlpha" result="effect3_innerShadow_2006_1665"/>
<feOffset dx="-1" dy="1"/>
<feGaussianBlur stdDeviation="1"/>
<feComposite in2="hardAlpha" operator="arithmetic" k2="-1" k3="1"/>
<feColorMatrix type="matrix" values="0 0 0 0 0 0 0 0 0 0 0 0 0 0 0 0 0 0 0.11 0"/>
<feBlend mode="normal" in2="effect2_innerShadow_2006_1665" result="effect3_innerShadow_2006_1665"/>
</filter>
<radialGradient id="paint0_radial_2006_1665" cx="0" cy="0" r="1" gradientUnits="userSpaceOnUse" gradientTransform="translate(130.723 94.1593) rotate(143.379) scale(118.314 120.075)">
<stop stop-color="#F3D0A2"/>
<stop offset="1" stop-color="#EDB072"/>
</radialGradient>
<linearGradient id="paint1_linear_2006_1665" x1="104" y1="32" x2="104" y2="160" gradientUnits="userSpaceOnUse">
<stop stop-color="#A4A19D"/>
<stop offset="1" stop-color="#838280"/>
</linearGradient>
<radialGradient id="paint2_diamond_2006_1665" cx="0" cy="0" r="1" gradientUnits="userSpaceOnUse" gradientTransform="translate(104 95.7929) rotate(45) scale(56.5 56)">
<stop offset="0.344643" stop-color="#FAECC9"/>
<stop offset="1" stop-color="#ECD4A8"/>
</radialGradient>
<radialGradient id="paint3_diamond_2006_1665" cx="0" cy="0" r="1" gradientUnits="userSpaceOnUse" gradientTransform="translate(104 96.5) rotate(135) scale(109.045 110.74)">
<stop offset="0.344643" stop-color="#F9E0B2"/>
<stop offset="1" stop-color="#CA8B4E"/>
</radialGradient>
<radialGradient id="paint4_radial_2006_1665" cx="0" cy="0" r="1" gradientUnits="userSpaceOnUse" gradientTransform="translate(108.75 90.25) rotate(98.2525) scale(33.0927)">
<stop stop-color="#F5D5A2"/>
<stop offset="1" stop-color="#F9E8C5"/>
</radialGradient>
<radialGradient id="paint5_radial_2006_1665" cx="0" cy="0" r="1" gradientUnits="userSpaceOnUse" gradientTransform="translate(104 96) rotate(90) scale(27)">
<stop offset="0.854167" stop-color="#D5CBBD"/>
<stop offset="0.875" stop-color="#E9E3D6"/>
<stop offset="0.927083" stop-color="#E4DDCF"/>
<stop offset="0.956402" stop-color="#EBE5D8"/>
<stop offset="1" stop-color="#C7AE9D"/>
</radialGradient>
</defs>
</svg>
