<svg width="70" height="70" viewBox="0 0 70 70" fill="none" xmlns="http://www.w3.org/2000/svg">
<g filter="url(#filter0_dii_2033_3735)">
<circle cx="35" cy="33" r="28" fill="#F9E5BF"/>
<circle cx="35" cy="33" r="29.5" stroke="url(#paint0_angular_2033_3735)" stroke-width="3"/>
</g>
<path d="M49 33C49 36.2887 47.8422 39.4725 45.7297 41.993C43.6171 44.5135 40.6847 46.2099 37.4465 46.7846C34.2084 47.3593 30.8713 46.7757 28.0204 45.1361C25.1695 43.4965 22.9868 40.9056 21.8551 37.8177" stroke="#4F5D64" stroke-width="2"/>
<path d="M21 33C21 29.7113 22.1578 26.5275 24.2703 24.007C26.3829 21.4865 29.3153 19.7901 32.5535 19.2154C35.7916 18.6407 39.1287 19.2243 41.9796 20.8639C44.8305 22.5035 47.0132 25.0944 48.1449 28.1823" stroke="#4F5D64" stroke-width="2"/>
<path d="M45 38L49 33L53 38" stroke="#4F5D64" stroke-width="2"/>
<path d="M25 28L21 33L17 28" stroke="#4F5D64" stroke-width="2"/>
<defs>
<filter id="filter0_dii_2033_3735" x="0" y="-2" width="70" height="72" filterUnits="userSpaceOnUse" color-interpolation-filters="sRGB">
<feFlood flood-opacity="0" result="BackgroundImageFix"/>
<feColorMatrix in="SourceAlpha" type="matrix" values="0 0 0 0 0 0 0 0 0 0 0 0 0 0 0 0 0 0 127 0" result="hardAlpha"/>
<feOffset dy="2"/>
<feGaussianBlur stdDeviation="2"/>
<feComposite in2="hardAlpha" operator="out"/>
<feColorMatrix type="matrix" values="0 0 0 0 0 0 0 0 0 0 0 0 0 0 0 0 0 0 0.75 0"/>
<feBlend mode="normal" in2="BackgroundImageFix" result="effect1_dropShadow_2033_3735"/>
<feBlend mode="normal" in="SourceGraphic" in2="effect1_dropShadow_2033_3735" result="shape"/>
<feColorMatrix in="SourceAlpha" type="matrix" values="0 0 0 0 0 0 0 0 0 0 0 0 0 0 0 0 0 0 127 0" result="hardAlpha"/>
<feOffset dx="5" dy="-6"/>
<feGaussianBlur stdDeviation="2"/>
<feComposite in2="hardAlpha" operator="arithmetic" k2="-1" k3="1"/>
<feColorMatrix type="matrix" values="0 0 0 0 0.992157 0 0 0 0 0.960784 0 0 0 0 0.854902 0 0 0 1 0"/>
<feBlend mode="normal" in2="shape" result="effect2_innerShadow_2033_3735"/>
<feColorMatrix in="SourceAlpha" type="matrix" values="0 0 0 0 0 0 0 0 0 0 0 0 0 0 0 0 0 0 127 0" result="hardAlpha"/>
<feMorphology radius="3" operator="erode" in="SourceAlpha" result="effect3_innerShadow_2033_3735"/>
<feOffset dx="-2" dy="3"/>
<feGaussianBlur stdDeviation="2"/>
<feComposite in2="hardAlpha" operator="arithmetic" k2="-1" k3="1"/>
<feColorMatrix type="matrix" values="0 0 0 0 0.972549 0 0 0 0 0.819608 0 0 0 0 0.623529 0 0 0 1 0"/>
<feBlend mode="normal" in2="effect2_innerShadow_2033_3735" result="effect3_innerShadow_2033_3735"/>
</filter>
<radialGradient id="paint0_angular_2033_3735" cx="0" cy="0" r="1" gradientUnits="userSpaceOnUse" gradientTransform="translate(35 33) rotate(-49.1446) scale(32.6122 32.3437)">
<stop offset="0.698529" stop-color="#ECBD7D"/>
<stop offset="1" stop-color="#F4F5EB"/>
</radialGradient>
</defs>
</svg>
